<?xml version="1.0" standalone="no"?>
<!DOCTYPE svg PUBLIC "-//W3C//DTD SVG 20010904//EN"
 "http://www.w3.org/TR/2001/REC-SVG-20010904/DTD/svg10.dtd">
<svg version="1.0" xmlns="http://www.w3.org/2000/svg"
 width="512.000000pt" height="512.000000pt" viewBox="0 0 512.000000 512.000000"
 preserveAspectRatio="xMidYMid meet">

<g transform="translate(0.000000,512.000000) scale(0.100000,-0.100000)"
fill="#000000" stroke="none">
<path d="M1143 3939 c-17 -5 -41 -21 -52 -35 -20 -25 -21 -40 -21 -225 0 -121
4 -207 11 -222 29 -63 116 -72 163 -16 25 29 26 35 26 165 l0 134 136 0 136 0
34 34 c59 59 37 143 -44 166 -45 12 -345 12 -389 -1z"/>
<path d="M3583 3939 c-42 -12 -73 -53 -73 -96 0 -26 8 -43 34 -69 l34 -34 136
0 136 0 0 -134 c0 -129 1 -136 25 -164 31 -36 66 -46 111 -32 58 20 64 43 64
268 0 186 -1 201 -20 225 -12 15 -38 31 -58 37 -45 12 -345 12 -389 -1z"/>
<path d="M2355 3680 c-419 -89 -738 -421 -805 -842 -18 -111 -8 -321 20 -423
43 -159 131 -316 238 -428 36 -37 63 -69 61 -71 -2 -2 -29 -16 -59 -31 -273
-136 -479 -357 -526 -564 -20 -89 -13 -132 27 -165 72 -61 169 -3 169 101 0
89 143 268 294 368 111 73 167 100 350 168 33 12 66 61 66 98 0 35 -30 71 -95
115 -91 60 -206 190 -259 293 -243 471 8 1034 523 1173 108 29 295 29 406 -1
279 -75 496 -287 581 -566 24 -79 27 -106 27 -225 0 -163 -19 -246 -89 -381
-53 -103 -168 -233 -259 -293 -77 -51 -98 -82 -92 -130 7 -53 27 -68 133 -109
189 -73 324 -158 438 -277 80 -84 136 -179 136 -233 0 -104 97 -162 169 -101
40 33 47 76 27 165 -47 207 -253 428 -526 564 -30 15 -57 29 -59 31 -2 2 26
36 63 75 110 116 193 266 236 424 33 120 38 339 12 465 -114 554 -659 915
-1207 800z"/>
<path d="M1099 2381 l-29 -29 0 -201 c0 -128 4 -209 11 -225 23 -50 60 -57
275 -54 l196 3 29 33 c50 56 33 129 -37 158 -22 9 -73 14 -154 14 l-120 0 0
136 0 136 -29 29 c-23 23 -38 29 -71 29 -33 0 -48 -6 -71 -29z"/>
<path d="M3879 2381 l-29 -29 0 -136 0 -136 -120 0 c-81 0 -132 -5 -154 -14
-70 -29 -87 -102 -37 -158 l29 -33 196 -3 c215 -3 252 4 275 54 7 16 11 97 11
225 l0 201 -29 29 c-23 23 -38 29 -71 29 -33 0 -48 -6 -71 -29z"/>
</g>
</svg>
