<svg width="31" height="30" viewBox="0 0 31 30" fill="none" xmlns="http://www.w3.org/2000/svg">
<path d="M6.76468 8.1178H5.17645C4.334 8.1178 3.52606 8.44007 2.93036 9.01371C2.33466 9.58734 2 10.3654 2 11.1766V24.9413C2 25.7526 2.33466 26.5306 2.93036 27.1042C3.52606 27.6779 4.334 28.0001 5.17645 28.0001H19.4705C20.3129 28.0001 21.1209 27.6779 21.7166 27.1042C22.3123 26.5306 22.6469 25.7526 22.6469 24.9413V23.4119" fill="white"/>
<path d="M6.76468 8.1178H5.17645C4.334 8.1178 3.52606 8.44007 2.93036 9.0137C2.33466 9.58734 2 10.3654 2 11.1766V24.9413C2 25.7526 2.33466 26.5306 2.93036 27.1042C3.52606 27.6779 4.334 28.0001 5.17645 28.0001H19.4705C20.3129 28.0001 21.1209 27.6779 21.7166 27.1042C22.3123 26.5306 22.6469 25.7526 22.6469 24.9413V23.4119" stroke="#FBAF17" stroke-width="4" stroke-linecap="round" stroke-linejoin="round"/>
<path d="M28.023 7.4831C28.6486 6.88074 29 6.06378 29 5.21192C29 4.36007 28.6486 3.5431 28.023 2.94075C27.3975 2.3384 26.5491 2 25.6645 2C24.7799 2 23.9315 2.3384 23.306 2.94075L9.9411 15.7648V20.3531H14.7058L28.023 7.4831ZM21.0587 5.05898L25.8234 9.64721L21.0587 5.05898Z" fill="white"/>
<path d="M21.0587 5.05898L25.8234 9.64721M28.023 7.4831C28.6486 6.88074 29 6.06378 29 5.21192C29 4.36007 28.6486 3.5431 28.023 2.94075C27.3975 2.3384 26.5491 2 25.6645 2C24.7799 2 23.9315 2.3384 23.306 2.94075L9.9411 15.7648V20.3531H14.7058L28.023 7.4831Z" stroke="#FBAF17" stroke-width="4" stroke-linecap="round" stroke-linejoin="round"/>
</svg>
